<?xml version="1.0" encoding="UTF-8"?>
<svg id="_レイヤー_1" xmlns="http://www.w3.org/2000/svg" version="1.1" viewBox="0 0 500 211.17">
  <!-- Generator: Adobe Illustrator 29.7.1, SVG Export Plug-In . SVG Version: 2.1.1 Build 8)  -->
  <defs>
    <style>
      .st0 {
        fill: #303030;
      }
    </style>
  </defs>
  <g>
    <path class="st0" d="M161.6,17.77l-.27-3.93C161.25,2.41,156.28.01,152.12.01c-2.64,0-5.83,1.01-9.42,2.98l-2.27,1.11C95.23,26.21,26.93,59.64,11.06,87.15.16,106-2.85,128.87,2.78,149.89c5.63,21.01,19.68,39.32,38.54,50.2,12.55,7.25,26.85,11.08,41.37,11.08h-.01c7.23.01,14.42-.94,21.38-2.8,21.02-5.63,39.32-19.68,50.2-38.54,15.9-27.54,10.95-99.51,7.34-152.06ZM148.23,14.28l.46-.24s.06-.03.06-.03l.31,4.71c3.3,48.03,8.29,120.6-5.68,144.81-9.24,16-24.75,27.9-42.57,32.67-17.58,4.75-37.23,2.2-53.2-7.01-15.99-9.24-27.89-24.76-32.67-42.57-4.78-17.81-2.23-37.21,7.01-53.2,13.98-24.18,82.85-57.89,124.01-78.02l2.27-1.12ZM150.25,14.49h.02s0,0,0,0h-.02Z"/>
    <path class="st0" d="M338.97,17.77l-.28-3.93c-.07-11.43-5.05-13.83-9.2-13.83-2.65,0-5.84,1.01-9.42,2.98l-2.27,1.11c-45.2,22.12-113.51,55.55-129.38,83.05-10.89,18.86-13.91,41.73-8.28,62.74,5.64,21.02,19.69,39.32,38.55,50.2,12.55,7.25,26.85,11.08,41.36,11.08h.01c7.22.01,14.42-.94,21.38-2.8,21.02-5.64,39.32-19.68,50.2-38.54,15.9-27.54,10.94-99.51,7.33-152.06ZM325.6,14.28l.45-.24s.06-.03.06-.03h.01s.01.1.01.17l.32,4.7c3.3,47.98,8.25,120.47-5.7,144.65-9.25,16-24.77,27.91-42.58,32.67-17.6,4.73-37.26,2.19-53.2-7.01-15.99-9.24-27.9-24.76-32.67-42.57-4.77-17.81-2.22-37.21,7.01-53.2,13.96-24.17,82.86-57.88,124.02-78.03l2.27-1.11Z"/>
  </g>
  <g>
    <path class="st0" d="M371.57,176.07c1.43-1.93,3.13-3.46,5.08-4.59,2.73-1.61,5.62-2.41,8.66-2.41,4.54,0,8.17,1.53,10.88,4.59,2.41,2.69,3.61,6.7,3.61,12.05v20.97c0,1-.3,1.86-.9,2.56-.96,1.08-2.3,1.62-4.03,1.62-1.96,0-3.38-.68-4.25-2.03-.4-.63-.6-1.34-.6-2.15v-19.88c0-2.21-.35-4.07-1.05-5.57-1.13-2.41-2.97-3.61-5.54-3.61-2.71,0-5.3,1.41-7.76,4.22-1.96,2.21-2.94,4.48-2.94,6.82v18.04c0,1.08-.35,1.98-1.05,2.71-.96.98-2.24,1.47-3.84,1.47-1.98,0-3.41-.68-4.29-2.03-.4-.6-.6-1.32-.6-2.15v-33.32c0-1,.24-1.85.72-2.52.7-1.03,1.78-1.54,3.24-1.54,2.31,0,3.69,1.26,4.14,3.77l.53,3.01v-.03Z"/>
    <path class="st0" d="M418.9,152.39c1.1,0,2.16.32,3.16.94,1.98,1.18,2.97,2.92,2.97,5.23,0,1.61-.55,3-1.66,4.18-1.2,1.33-2.72,2-4.56,2-1.03,0-2.01-.25-2.94-.75-2.13-1.2-3.2-3.02-3.2-5.46,0-1.91.72-3.46,2.15-4.67,1.18-.98,2.54-1.47,4.07-1.47h.01ZM423.79,173.55v33.06c0,1.03-.32,1.9-.94,2.6-.96,1.11-2.3,1.66-4.03,1.66-1.96,0-3.39-.69-4.29-2.07-.4-.63-.6-1.36-.6-2.18v-33.06c0-1.51.65-2.65,1.96-3.43.9-.55,1.9-.83,2.97-.83,1.28,0,2.41.36,3.39,1.09,1.03.8,1.54,1.86,1.54,3.16h0Z"/>
    <path class="st0" d="M446.53,204.16l-.45,3.09c-.35,2.41-1.73,3.61-4.14,3.61-2.69,0-4.03-1.37-4.03-4.1v-49.74c0-1,.31-1.87.94-2.6.93-1.03,2.22-1.54,3.88-1.54,1.91,0,3.3.65,4.18,1.96.43.63.64,1.36.64,2.18v17.28c2.81-3.49,6.76-5.23,11.86-5.23,5.95,0,10.73,2.39,14.35,7.15,2.89,3.84,4.33,8.45,4.33,13.82,0,5.8-1.48,10.61-4.44,14.42-3.49,4.47-8.18,6.7-14.08,6.7-3.77,0-7.09-1.17-9.98-3.5-1.23-.98-2.25-2.15-3.05-3.5h0ZM447.47,187.71v3.01c0,4.19,1.54,7.54,4.63,10.05,1.78,1.43,3.71,2.15,5.8,2.15,2.99,0,5.41-1.18,7.27-3.54,1.88-2.36,2.82-5.48,2.82-9.38,0-4.29-1.22-7.64-3.65-10.05-1.83-1.81-4.04-2.71-6.63-2.71-2.24,0-4.29.74-6.18,2.22-2.71,2.16-4.07,4.91-4.07,8.25h.01Z"/>
    <path class="st0" d="M493.86,152.39c1.1,0,2.16.32,3.16.94,1.98,1.18,2.97,2.92,2.97,5.23,0,1.61-.55,3-1.66,4.18-1.2,1.33-2.72,2-4.56,2-1.03,0-2.01-.25-2.94-.75-2.13-1.2-3.2-3.02-3.2-5.46,0-1.91.72-3.46,2.15-4.67,1.18-.98,2.54-1.47,4.07-1.47h.01ZM498.76,173.55v33.06c0,1.03-.32,1.9-.94,2.6-.96,1.11-2.3,1.66-4.03,1.66-1.96,0-3.39-.69-4.29-2.07-.4-.63-.6-1.36-.6-2.18v-33.06c0-1.51.65-2.65,1.96-3.43.9-.55,1.9-.83,2.97-.83,1.28,0,2.41.36,3.39,1.09,1.03.8,1.54,1.86,1.54,3.16h0Z"/>
  </g>
</svg>